<?xml version="1.0" standalone="no"?>
<!DOCTYPE svg PUBLIC "-//W3C//DTD SVG 20010904//EN"
 "http://www.w3.org/TR/2001/REC-SVG-20010904/DTD/svg10.dtd">
<svg version="1.0" xmlns="http://www.w3.org/2000/svg"
 width="500.000000pt" height="500.000000pt" viewBox="0 0 500.000000 500.000000"
 preserveAspectRatio="xMidYMid meet">
<metadata>
Created by potrace 1.15, written by Peter Selinger 2001-2017
</metadata>
<g transform="translate(0.000000,500.000000) scale(0.100000,-0.100000)"
fill="#000000" stroke="none">
<path d="M2381 4050 c-305 -64 -546 -291 -621 -585 -17 -67 -20 -111 -20 -307
l0 -228 818 2 817 3 -1 225 c-1 196 -4 235 -23 305 -72 268 -257 467 -521 556
-89 30 -105 33 -250 35 -85 2 -175 -1 -199 -6z m44 -190 c42 -39 34 -75 -28
-134 -75 -72 -340 -226 -388 -226 -36 0 -59 28 -59 73 0 107 125 243 274 298
73 26 166 21 201 -11z"/>
<path d="M1480 2711 c-110 -9 -159 -28 -198 -79 -56 -73 -24 -231 68 -335 39
-45 70 -63 136 -77 52 -12 307 -50 337 -50 15 0 17 12 17 105 l0 105 720 0
720 0 0 -105 c0 -77 3 -105 13 -105 25 0 284 39 331 50 67 15 98 33 140 82 79
91 115 223 83 299 -17 43 -66 82 -122 100 -31 10 -270 13 -1095 15 -580 1
-1098 -2 -1150 -5z"/>
<path d="M2430 2156 c-240 -52 -388 -181 -429 -374 -24 -113 -7 -299 38 -426
63 -180 213 -319 382 -356 75 -17 259 -9 324 14 165 59 290 203 345 398 27 92
38 289 21 370 -47 221 -251 369 -531 383 -51 3 -111 -1 -150 -9z m303 -310
c39 -17 92 -71 106 -109 20 -51 13 -126 -14 -173 -29 -50 -96 -94 -143 -94
-32 0 -32 0 -32 51 0 65 -38 109 -95 109 -27 0 -44 -8 -66 -29 -25 -25 -29
-37 -29 -82 l0 -52 -41 6 c-107 14 -177 123 -155 242 8 42 67 112 111 131 43
19 314 19 358 0z"/>
<path d="M2367 1774 c-14 -14 -6 -54 12 -64 11 -6 88 -10 178 -10 174 0 198 6
191 51 l-3 24 -186 3 c-102 1 -188 -1 -192 -4z"/>
</g>
</svg>
